<svg width="40" height="40" viewBox="0 0 40 40" fill="none" xmlns="http://www.w3.org/2000/svg">
<path fill-rule="evenodd" clip-rule="evenodd" d="M20 0C8.9543 0 0 8.9543 0 20C0 31.0457 8.9543 40 20 40C31.0457 40 40 31.0457 40 20C40 8.9543 31.0457 0 20 0ZM15.6034 9.3977C16.7412 9.34592 17.1047 9.33325 20.0016 9.33325H19.9983C22.8961 9.33325 23.2583 9.34592 24.3961 9.3977C25.5317 9.4497 26.3073 9.62948 26.9873 9.89326C27.6895 10.1655 28.2828 10.5299 28.8762 11.1233C29.4695 11.7162 29.834 12.3113 30.1073 13.0128C30.3695 13.6911 30.5495 14.4662 30.6029 15.6018C30.654 16.7396 30.6673 17.1031 30.6673 20C30.6673 22.8969 30.654 23.2596 30.6029 24.3974C30.5495 25.5325 30.3695 26.3079 30.1073 26.9863C29.834 27.6877 29.4695 28.2828 28.8762 28.8757C28.2835 29.469 27.6893 29.8344 26.9879 30.1068C26.3093 30.3706 25.5333 30.5504 24.3977 30.6024C23.2599 30.6541 22.8975 30.6668 20.0003 30.6668C17.1036 30.6668 16.7403 30.6541 15.6025 30.6024C14.4671 30.5504 13.6918 30.3706 13.0131 30.1068C12.312 29.8344 11.7169 29.469 11.1242 28.8757C10.5311 28.2828 10.1667 27.6877 9.89399 26.9861C9.63043 26.3079 9.45065 25.5328 9.39843 24.3972C9.34687 23.2594 9.33398 22.8969 9.33398 20C9.33398 17.1031 9.34732 16.7393 9.39821 15.6015C9.44932 14.4664 9.62932 13.6911 9.89377 13.0126C10.1671 12.3113 10.5316 11.7162 11.1249 11.1233C11.7178 10.5302 12.3129 10.1657 13.0145 9.89326C13.6927 9.62948 14.4678 9.4497 15.6034 9.3977ZM19.9991 15.5557C22.4536 15.5557 24.4436 17.5454 24.4436 20.0001C24.4436 22.4546 22.4536 24.4446 19.9991 24.4446C17.5444 24.4446 15.5547 22.4546 15.5547 20.0001C15.5547 17.5454 17.5444 15.5557 19.9991 15.5557ZM26.6675 14.4444C26.6675 13.8307 26.17 13.3333 25.5564 13.3333C24.9427 13.3333 24.4453 13.8307 24.4453 14.4444C24.4453 15.058 24.9427 15.5555 25.5564 15.5555C26.17 15.5555 26.6675 15.058 26.6675 14.4444Z" fill="#019673"/>
</svg>
