<svg width="60" height="60" viewBox="0 0 60 60" fill="none" xmlns="http://www.w3.org/2000/svg">
<circle cx="30" cy="30" r="30" fill="white"/>
<path d="M46 26.4042L44.5414 24.9938L40.8276 28.5849L37.1138 24.9938L35.6552 26.4042L39.369 29.9954L35.6552 33.5866L37.1138 34.997L40.8276 31.4059L44.5414 34.997L46 33.5866L42.2862 29.9954L46 26.4042ZM32.5517 44C32.4149 43.9994 32.2795 43.9726 32.1534 43.9211C32.0273 43.8696 31.9131 43.7944 31.8172 43.6999L23.9345 35.9974H17.0345C16.7601 35.9974 16.497 35.892 16.303 35.7044C16.109 35.5168 16 35.2623 16 34.997V24.9938C16 24.7284 16.109 24.474 16.303 24.2864C16.497 24.0988 16.7601 23.9934 17.0345 23.9934H23.9345L31.8172 16.2909C32.0111 16.1046 32.2733 16 32.5466 16C32.8198 16 33.082 16.1046 33.2759 16.2909C33.4708 16.4756 33.5823 16.7273 33.5862 16.9911V42.9997C33.5862 43.265 33.4772 43.5194 33.2832 43.707C33.0892 43.8946 32.8261 44 32.5517 44Z" fill="#019673"/>
</svg>
