<svg width="60" height="60" viewBox="0 0 60 60" fill="none" xmlns="http://www.w3.org/2000/svg">
<circle cx="30" cy="30" r="30" fill="white"/>
<rect x="25.8723" y="15.7554" width="9.11657" height="11.9655" rx="4.55829" fill="#019673"/>
<rect x="28.7212" y="26.0115" width="3.41872" height="18.2331" fill="#019673"/>
<rect x="38.1594" y="27.1511" width="3.41872" height="17.0936" fill="#019673"/>
<rect x="19.0237" y="27.1511" width="3.41872" height="17.0936" fill="#019673"/>
<path d="M43.8571 17.4648L45.5664 17.4648L41.5779 27.1512L38.1591 27.1512L43.8571 17.4648Z" fill="#019673"/>
<path d="M18.4639 23.1627L20.743 21.7382L22.442 27.1513L19.0233 27.1513L18.4639 23.1627Z" fill="#019673"/>
<rect x="33.8494" y="37.4072" width="3.41872" height="6.83743" transform="rotate(90 33.8494 37.4072)" fill="#019673"/>
<rect x="43.2876" y="37.4072" width="3.41872" height="6.83743" transform="rotate(90 43.2876 37.4072)" fill="#019673"/>
<rect x="24.1519" y="37.4072" width="3.41872" height="6.83743" transform="rotate(90 24.1519 37.4072)" fill="#019673"/>
<rect x="20.4048" y="17.9443" width="4.71263" height="4.66358" transform="rotate(70.7604 20.4048 17.9443)" fill="#019673"/>
</svg>
