<svg width="18" height="18" viewBox="0 0 18 18" fill="none" xmlns="http://www.w3.org/2000/svg">
<path d="M17.9898 14.2053C17.9469 13.9399 17.7805 13.713 17.5313 13.5782L13.8452 11.4058L13.8148 11.3888C13.6603 11.3114 13.4896 11.2717 13.3167 11.273C13.0079 11.273 12.713 11.3901 12.5083 11.5953L11.4203 12.6841C11.3738 12.7284 11.222 12.7924 11.176 12.7947C11.1634 12.7937 9.9101 12.7034 7.60275 10.3952C5.29952 8.09178 5.2018 6.83425 5.20103 6.83425C5.20232 6.76995 5.26557 6.6187 5.31057 6.57189L6.23835 5.64411C6.56518 5.31641 6.66315 4.77317 6.46926 4.35236L4.42034 0.495914C4.27145 0.189311 3.98217 0 3.66125 0C3.4342 0 3.21511 0.0941414 3.04385 0.265191L0.514845 2.78926C0.272358 3.03053 0.0635573 3.45236 0.0180428 3.79189C-0.00407151 3.95419 -0.452787 7.82839 4.85723 13.1407C9.36521 17.6494 12.8804 17.9998 13.8511 17.9998C13.9693 18.0013 14.0875 17.9952 14.2049 17.9815C14.5433 17.9362 14.9645 17.7279 15.2055 17.4864L17.7324 14.959C17.9386 14.7516 18.0328 14.4777 17.9898 14.2053Z" fill="white"/>
</svg>
