<svg width="60" height="60" viewBox="0 0 60 60" fill="none" xmlns="http://www.w3.org/2000/svg">
<circle cx="30" cy="30" r="30" fill="white"/>
<path d="M44.8422 15.4071C44.83 15.3478 44.8011 15.2932 44.759 15.2498C44.7169 15.2063 44.6633 15.1758 44.6045 15.1618C40.6823 14.202 31.6199 17.6223 26.71 22.5346C25.8343 23.404 25.0359 24.3482 24.324 25.3564C22.8099 25.2224 21.2958 25.3343 20.0054 25.8973C16.3645 27.5012 15.3045 31.6863 15.0091 33.4867C14.9924 33.5852 14.9987 33.6863 15.0276 33.782C15.0565 33.8776 15.1072 33.9653 15.1756 34.0381C15.2441 34.1108 15.3285 34.1667 15.4222 34.2013C15.5159 34.2358 15.6164 34.2482 15.7156 34.2373L21.5624 33.5919C21.5665 34.0331 21.5931 34.4738 21.6421 34.9123C21.6715 35.2168 21.8065 35.5014 22.0238 35.7166L24.2879 37.9774C24.5031 38.1945 24.7873 38.3297 25.0914 38.3594C25.5271 38.4082 25.9649 38.4348 26.4033 38.4392L25.7618 44.2839C25.7511 44.3832 25.7635 44.4837 25.7981 44.5774C25.8327 44.6711 25.8885 44.7555 25.9612 44.824C26.0338 44.8925 26.1213 44.9432 26.2169 44.9722C26.3124 45.0012 26.4133 45.0076 26.5118 44.991C28.3071 44.7028 32.4958 43.6418 34.0889 39.9976C34.6514 38.706 34.7666 37.1979 34.6367 35.6898C35.6464 34.9772 36.5922 34.1779 37.4633 33.301C42.3886 28.396 45.7864 19.5278 44.8422 15.4071ZM32.5494 27.4496C32.0996 26.9998 31.7933 26.4265 31.6691 25.8024C31.5449 25.1782 31.6084 24.5312 31.8516 23.9432C32.0949 23.3552 32.5068 22.8527 33.0355 22.4991C33.5641 22.1454 34.1857 21.9567 34.8215 21.9567C35.4573 21.9567 36.0789 22.1454 36.6075 22.4991C37.1361 22.8527 37.5481 23.3552 37.7914 23.9432C38.0346 24.5312 38.0981 25.1782 37.9739 25.8024C37.8497 26.4265 37.5434 26.9998 37.0936 27.4496C36.7954 27.7485 36.4412 27.9857 36.0513 28.1475C35.6615 28.3093 35.2436 28.3926 34.8215 28.3926C34.3994 28.3926 33.9815 28.3093 33.5916 28.1475C33.2018 27.9857 32.8476 27.7485 32.5494 27.4496Z" fill="#019673"/>
<path d="M24.4644 39.4599C24.0791 39.8459 23.4612 39.9964 22.7174 40.1251C21.0463 40.4098 19.5706 38.9656 19.8708 37.276C19.9854 36.6355 20.3243 35.7376 20.5352 35.5266C20.5813 35.4814 20.612 35.4228 20.6229 35.3592C20.6338 35.2955 20.6244 35.2301 20.596 35.1721C20.5676 35.1141 20.5216 35.0665 20.4646 35.0361C20.4077 35.0058 20.3426 34.9941 20.2786 35.0028C19.3441 35.1172 18.4747 35.5409 17.8089 36.2066C16.1561 37.861 16 44 16 44C16 44 22.1416 43.8439 23.7944 42.1895C24.462 41.524 24.8862 40.6532 24.9987 39.7173C25.0247 39.4234 24.6668 39.2483 24.4644 39.4599Z" fill="#019673"/>
</svg>
