<svg width="40" height="40" viewBox="0 0 40 40" fill="none" xmlns="http://www.w3.org/2000/svg">
<path fill-rule="evenodd" clip-rule="evenodd" d="M0 20C0 31.0457 8.9543 40 20 40C31.0457 40 40 31.0457 40 20C40 8.9543 31.0457 0 20 0C8.9543 0 0 8.9543 0 20ZM16.3326 29.1667L16.6728 24.0685L16.6726 24.0683L25.9467 15.6992C26.3537 15.3379 25.8578 15.1618 25.3175 15.4894L13.872 22.7103L8.92812 21.1672C7.86047 20.8403 7.8528 20.1067 9.16782 19.5792L28.4328 12.1507C29.3127 11.7512 30.162 12.362 29.8261 13.7087L26.5452 29.1692C26.3161 30.2679 25.6523 30.5306 24.7326 30.0232L19.7348 26.3308L17.3326 28.6667C17.325 28.674 17.3174 28.6814 17.3099 28.6887C17.0413 28.9502 16.819 29.1667 16.3326 29.1667Z" fill="#019673"/>
</svg>
